<svg xmlns="http://www.w3.org/2000/svg" viewBox="0 0 800 600" width="800" height="600">
  <defs>
    <linearGradient id="grad" x1="0%" y1="0%" x2="100%" y2="100%">
      <stop offset="0%" style="stop-color:#1C1917;stop-opacity:1" />
      <stop offset="100%" style="stop-color:#292524;stop-opacity:1" />
    </linearGradient>
    <linearGradient id="glow" x1="0%" y1="0%" x2="100%" y2="0%">
      <stop offset="0%" style="stop-color:#F97316;stop-opacity:0.9" />
      <stop offset="100%" style="stop-color:#F59E0B;stop-opacity:0.9" />
    </linearGradient>
    <filter id="shadow" x="-10%" y="-10%" width="120%" height="120%">
      <feDropShadow dx="0" dy="16" stdDeviation="20" flood-color="#000000" flood-opacity="0.8"/>
    </filter>
  </defs>

  <!-- Canvas Background -->
  <rect width="800" height="600" fill="url(#grad)" />
  
  <!-- Subtle Blueprint Precision Grid -->
  <path d="M0 100 H800 M0 200 H800 M0 300 H800 M0 400 H800 M0 500 H800" stroke="#FFFFFF" stroke-opacity="0.03" stroke-width="1"/>
  <path d="M100 0 V600 M200 0 V600 M300 0 V600 M400 0 V600 M500 0 V600 M600 0 V600 M700 0 V600" stroke="#FFFFFF" stroke-opacity="0.03" stroke-width="1"/>

  <!-- Ambient Flare Orbs -->
  <circle cx="700" cy="120" r="160" fill="#F97316" opacity="0.08" />
  <circle cx="100" cy="480" r="180" fill="#38BDF8" opacity="0.05" />

  <!-- Main Card Glass Container -->
  <g filter="url(#shadow)">
    <rect x="40" y="40" width="720" height="520" rx="28" fill="#0A0E1A" fill-opacity="0.88" stroke="#1E293B" stroke-width="2"/>
    <rect x="60" y="60" width="680" height="6" rx="3" fill="url(#glow)"/>
    
    <!-- Top OEM Badge Header -->
    <rect x="60" y="80" width="180" height="28" rx="14" fill="#1E293B" stroke="#334155" stroke-width="1"/>
    <text x="150" y="99" font-family="'Segoe UI', sans-serif" font-size="11" font-weight="bold" text-anchor="middle" fill="#38BDF8">REAL ASSET VERIFIED</text>
    <text x="700" y="99" font-family="monospace" font-size="10" text-anchor="end" fill="#64748B">ID: E-4-ENG-SPA-13-4-PRIMARY</text>

    <!-- Technical Category Graphic -->
    
            <!-- Technical CAD Engineering Blueprint -->
            <rect x="180" y="110" width="440" height="200" rx="12" fill="#0A1128" stroke="#1D4ED8" stroke-width="2" />
            <path d="M220 150 H580 M220 210 H580 M220 270 H580" stroke="#1E3A8A" stroke-width="1" stroke-dasharray="4,4" />
            <path d="M280 120 V300 M380 120 V300 M480 120 V300" stroke="#1E3A8A" stroke-width="1" stroke-dasharray="4,4" />
            <circle cx="380" cy="210" r="55" fill="none" stroke="#F97316" stroke-width="3" />
            <text x="380" y="140" font-family="monospace" font-size="11" text-anchor="middle" fill="#38BDF8">TOLERANCE ±0.05 MM</text>
            <rect x="460" y="245" width="140" height="24" rx="4" fill="#1E293B" />
            <text x="530" y="261" font-family="monospace" font-size="10" text-anchor="middle" fill="#94A3B8">ISO 9001:2025</text>
            

    <!-- Content Typography -->
    <text x="400" y="380" font-family="'Segoe UI', Roboto, sans-serif" font-size="18" font-weight="bold" text-anchor="middle" fill="#FFFFFF">Bosch Double Platinum Ultra-Ignition Spark Plugs (Pack of 4) - Grade 4</text>
    <text x="400" y="420" font-family="'Segoe UI', Roboto, sans-serif" font-size="18" text-anchor="middle" fill="#94A3B8">Car Delights OEM</text>
    
    <!-- Bottom Specs Ribbon & Badge -->
    <rect x="220" y="460" width="360" height="46" rx="23" fill="#111827" stroke="#F97316" stroke-width="1.5" />
  </g>
</svg>